<?xml version="1.0" encoding="UTF-8" standalone="no"?>
<!DOCTYPE svg PUBLIC "-//W3C//DTD SVG 1.1//EN"
 "http://www.w3.org/Graphics/SVG/1.1/DTD/svg11.dtd">
<!-- Generated by graphviz version 2.50.0 (20211204.2007)
 -->
<!-- Title: dag Pages: 1 -->
<svg width="872pt" height="275pt"
 viewBox="0.00 0.00 872.00 275.00" xmlns="http://www.w3.org/2000/svg" xmlns:xlink="http://www.w3.org/1999/xlink">
<g id="graph0" class="graph" transform="scale(1 1) rotate(0) translate(4 271)">
<title>dag</title>
<polygon fill="white" stroke="transparent" points="-4,4 -4,-271 868,-271 868,4 -4,4"/>
<!-- 4 -->
<g id="node1" class="node">
<title>4</title>
<ellipse fill="none" stroke="black" cx="207" cy="-203" rx="27" ry="18"/>
<text text-anchor="middle" x="207" y="-199.3" font-family="Times New Roman,serif" font-size="14.00">4</text>
</g>
<!-- 7 -->
<g id="node2" class="node">
<title>7</title>
<ellipse fill="none" stroke="black" cx="297" cy="-203" rx="27" ry="18"/>
<text text-anchor="middle" x="297" y="-199.3" font-family="Times New Roman,serif" font-size="14.00">7</text>
</g>
<!-- 4&#45;&gt;7 -->
<g id="edge1" class="edge">
<title>4&#45;&gt;7</title>
<path fill="none" stroke="black" d="M234.4,-203C242.39,-203 251.31,-203 259.82,-203"/>
<polygon fill="black" stroke="black" points="259.92,-206.5 269.92,-203 259.92,-199.5 259.92,-206.5"/>
</g>
<!-- 10 -->
<g id="node9" class="node">
<title>10</title>
<ellipse fill="none" stroke="black" cx="387" cy="-249" rx="27" ry="18"/>
<text text-anchor="middle" x="387" y="-245.3" font-family="Times New Roman,serif" font-size="14.00">10</text>
</g>
<!-- 4&#45;&gt;10 -->
<g id="edge25" class="edge">
<title>4&#45;&gt;10</title>
<path fill="none" stroke="black" d="M229.03,-213.72C240.81,-219.32 255.92,-225.85 270,-230 296.14,-237.7 326.58,-242.54 349.71,-245.4"/>
<polygon fill="black" stroke="black" points="349.45,-248.9 359.79,-246.58 350.26,-241.94 349.45,-248.9"/>
</g>
<!-- 9 -->
<g id="node20" class="node">
<title>9</title>
<ellipse fill="none" stroke="black" cx="297" cy="-149" rx="27" ry="18"/>
<text text-anchor="middle" x="297" y="-145.3" font-family="Times New Roman,serif" font-size="14.00">9</text>
</g>
<!-- 4&#45;&gt;9 -->
<g id="edge26" class="edge">
<title>4&#45;&gt;9</title>
<path fill="none" stroke="black" d="M227.53,-191.02C239.38,-183.74 254.7,-174.34 267.84,-166.28"/>
<polygon fill="black" stroke="black" points="269.83,-169.16 276.52,-160.95 266.17,-163.2 269.83,-169.16"/>
</g>
<!-- 13 -->
<g id="node7" class="node">
<title>13</title>
<ellipse fill="none" stroke="black" cx="387" cy="-195" rx="27" ry="18"/>
<text text-anchor="middle" x="387" y="-191.3" font-family="Times New Roman,serif" font-size="14.00">13</text>
</g>
<!-- 7&#45;&gt;13 -->
<g id="edge6" class="edge">
<title>7&#45;&gt;13</title>
<path fill="none" stroke="black" d="M323.93,-200.64C332.09,-199.9 341.26,-199.07 349.99,-198.27"/>
<polygon fill="black" stroke="black" points="350.31,-201.76 359.95,-197.37 349.68,-194.79 350.31,-201.76"/>
</g>
<!-- 2 -->
<g id="node3" class="node">
<title>2</title>
<ellipse fill="none" stroke="black" cx="117" cy="-111" rx="27" ry="18"/>
<text text-anchor="middle" x="117" y="-107.3" font-family="Times New Roman,serif" font-size="14.00">2</text>
</g>
<!-- 2&#45;&gt;7 -->
<g id="edge2" class="edge">
<title>2&#45;&gt;7</title>
<path fill="none" stroke="black" d="M138.77,-121.73C170.17,-137.96 229.89,-168.83 266.01,-187.5"/>
<polygon fill="black" stroke="black" points="264.6,-190.71 275.09,-192.19 267.81,-184.49 264.6,-190.71"/>
</g>
<!-- 5 -->
<g id="node5" class="node">
<title>5</title>
<ellipse fill="none" stroke="black" cx="207" cy="-111" rx="27" ry="18"/>
<text text-anchor="middle" x="207" y="-107.3" font-family="Times New Roman,serif" font-size="14.00">5</text>
</g>
<!-- 2&#45;&gt;5 -->
<g id="edge4" class="edge">
<title>2&#45;&gt;5</title>
<path fill="none" stroke="black" d="M144.4,-111C152.39,-111 161.31,-111 169.82,-111"/>
<polygon fill="black" stroke="black" points="169.92,-114.5 179.92,-111 169.92,-107.5 169.92,-114.5"/>
</g>
<!-- 6 -->
<g id="node12" class="node">
<title>6</title>
<ellipse fill="none" stroke="black" cx="297" cy="-41" rx="27" ry="18"/>
<text text-anchor="middle" x="297" y="-37.3" font-family="Times New Roman,serif" font-size="14.00">6</text>
</g>
<!-- 2&#45;&gt;6 -->
<g id="edge12" class="edge">
<title>2&#45;&gt;6</title>
<path fill="none" stroke="black" d="M139.68,-101.21C151.53,-95.94 166.5,-89.44 180,-84 207.89,-72.77 239.97,-60.96 263.31,-52.57"/>
<polygon fill="black" stroke="black" points="264.51,-55.86 272.74,-49.19 262.15,-49.27 264.51,-55.86"/>
</g>
<!-- 1 -->
<g id="node4" class="node">
<title>1</title>
<ellipse fill="none" stroke="black" cx="27" cy="-111" rx="27" ry="18"/>
<text text-anchor="middle" x="27" y="-107.3" font-family="Times New Roman,serif" font-size="14.00">1</text>
</g>
<!-- 1&#45;&gt;4 -->
<g id="edge24" class="edge">
<title>1&#45;&gt;4</title>
<path fill="none" stroke="black" d="M48.77,-121.73C80.17,-137.96 139.89,-168.83 176.01,-187.5"/>
<polygon fill="black" stroke="black" points="174.6,-190.71 185.09,-192.19 177.81,-184.49 174.6,-190.71"/>
</g>
<!-- 1&#45;&gt;2 -->
<g id="edge3" class="edge">
<title>1&#45;&gt;2</title>
<path fill="none" stroke="black" d="M54.4,-111C62.39,-111 71.31,-111 79.82,-111"/>
<polygon fill="black" stroke="black" points="79.92,-114.5 89.92,-111 79.92,-107.5 79.92,-114.5"/>
</g>
<!-- 3 -->
<g id="node10" class="node">
<title>3</title>
<ellipse fill="none" stroke="black" cx="207" cy="-19" rx="27" ry="18"/>
<text text-anchor="middle" x="207" y="-15.3" font-family="Times New Roman,serif" font-size="14.00">3</text>
</g>
<!-- 1&#45;&gt;3 -->
<g id="edge10" class="edge">
<title>1&#45;&gt;3</title>
<path fill="none" stroke="black" d="M48.77,-100.27C80.17,-84.04 139.89,-53.17 176.01,-34.5"/>
<polygon fill="black" stroke="black" points="177.81,-37.51 185.09,-29.81 174.6,-31.29 177.81,-37.51"/>
</g>
<!-- 11 -->
<g id="node6" class="node">
<title>11</title>
<ellipse fill="none" stroke="black" cx="297" cy="-95" rx="27" ry="18"/>
<text text-anchor="middle" x="297" y="-91.3" font-family="Times New Roman,serif" font-size="14.00">11</text>
</g>
<!-- 5&#45;&gt;11 -->
<g id="edge5" class="edge">
<title>5&#45;&gt;11</title>
<path fill="none" stroke="black" d="M233.45,-106.37C241.94,-104.83 251.54,-103.08 260.64,-101.43"/>
<polygon fill="black" stroke="black" points="261.39,-104.85 270.6,-99.62 260.14,-97.96 261.39,-104.85"/>
</g>
<!-- 11&#45;&gt;13 -->
<g id="edge7" class="edge">
<title>11&#45;&gt;13</title>
<path fill="none" stroke="black" d="M312.75,-109.98C316.47,-113.85 320.42,-118.04 324,-122 338.64,-138.18 354.56,-156.96 366.61,-171.42"/>
<polygon fill="black" stroke="black" points="364.13,-173.92 373.21,-179.38 369.52,-169.45 364.13,-173.92"/>
</g>
<!-- 12 -->
<g id="node13" class="node">
<title>12</title>
<ellipse fill="none" stroke="black" cx="387" cy="-95" rx="27" ry="18"/>
<text text-anchor="middle" x="387" y="-91.3" font-family="Times New Roman,serif" font-size="14.00">12</text>
</g>
<!-- 11&#45;&gt;12 -->
<g id="edge15" class="edge">
<title>11&#45;&gt;12</title>
<path fill="none" stroke="black" d="M324.4,-95C332.39,-95 341.31,-95 349.82,-95"/>
<polygon fill="black" stroke="black" points="349.92,-98.5 359.92,-95 349.92,-91.5 349.92,-98.5"/>
</g>
<!-- 16 -->
<g id="node8" class="node">
<title>16</title>
<ellipse fill="none" stroke="black" cx="477" cy="-203" rx="27" ry="18"/>
<text text-anchor="middle" x="477" y="-199.3" font-family="Times New Roman,serif" font-size="14.00">16</text>
</g>
<!-- 13&#45;&gt;16 -->
<g id="edge8" class="edge">
<title>13&#45;&gt;16</title>
<path fill="none" stroke="black" d="M413.93,-197.36C422.09,-198.1 431.26,-198.93 439.99,-199.73"/>
<polygon fill="black" stroke="black" points="439.68,-203.21 449.95,-200.63 440.31,-196.24 439.68,-203.21"/>
</g>
<!-- 15 -->
<g id="node16" class="node">
<title>15</title>
<ellipse fill="none" stroke="black" cx="477" cy="-149" rx="27" ry="18"/>
<text text-anchor="middle" x="477" y="-145.3" font-family="Times New Roman,serif" font-size="14.00">15</text>
</g>
<!-- 13&#45;&gt;15 -->
<g id="edge28" class="edge">
<title>13&#45;&gt;15</title>
<path fill="none" stroke="black" d="M408.85,-184.1C420.03,-178.26 434,-170.96 446.29,-164.53"/>
<polygon fill="black" stroke="black" points="448.05,-167.56 455.29,-159.82 444.81,-161.35 448.05,-167.56"/>
</g>
<!-- 19 -->
<g id="node18" class="node">
<title>19</title>
<ellipse fill="none" stroke="black" cx="747" cy="-172" rx="27" ry="18"/>
<text text-anchor="middle" x="747" y="-168.3" font-family="Times New Roman,serif" font-size="14.00">19</text>
</g>
<!-- 16&#45;&gt;19 -->
<g id="edge21" class="edge">
<title>16&#45;&gt;19</title>
<path fill="none" stroke="black" d="M503.7,-200.03C551.7,-194.48 655.08,-182.52 710,-176.16"/>
<polygon fill="black" stroke="black" points="710.46,-179.63 719.99,-175.01 709.65,-172.68 710.46,-179.63"/>
</g>
<!-- 10&#45;&gt;16 -->
<g id="edge9" class="edge">
<title>10&#45;&gt;16</title>
<path fill="none" stroke="black" d="M408.85,-238.1C420.03,-232.26 434,-224.96 446.29,-218.53"/>
<polygon fill="black" stroke="black" points="448.05,-221.56 455.29,-213.82 444.81,-215.35 448.05,-221.56"/>
</g>
<!-- 8 -->
<g id="node11" class="node">
<title>8</title>
<ellipse fill="none" stroke="black" cx="387" cy="-18" rx="27" ry="18"/>
<text text-anchor="middle" x="387" y="-14.3" font-family="Times New Roman,serif" font-size="14.00">8</text>
</g>
<!-- 3&#45;&gt;8 -->
<g id="edge11" class="edge">
<title>3&#45;&gt;8</title>
<path fill="none" stroke="black" d="M233.91,-16.44C245.01,-15.47 258.13,-14.48 270,-14 293.98,-13.03 300.01,-13.23 324,-14 332.43,-14.27 341.5,-14.75 350.02,-15.28"/>
<polygon fill="black" stroke="black" points="349.87,-18.78 360.08,-15.95 350.33,-11.8 349.87,-18.78"/>
</g>
<!-- 3&#45;&gt;6 -->
<g id="edge13" class="edge">
<title>3&#45;&gt;6</title>
<path fill="none" stroke="black" d="M232.51,-25.13C241.5,-27.37 251.84,-29.96 261.53,-32.38"/>
<polygon fill="black" stroke="black" points="260.76,-35.8 271.31,-34.83 262.46,-29.01 260.76,-35.8"/>
</g>
<!-- 3&#45;&gt;9 -->
<g id="edge27" class="edge">
<title>3&#45;&gt;9</title>
<path fill="none" stroke="black" d="M216.78,-36.16C227.91,-57.24 248.28,-93.68 270,-122 271.22,-123.59 272.52,-125.18 273.86,-126.76"/>
<polygon fill="black" stroke="black" points="271.48,-129.35 280.79,-134.4 276.67,-124.65 271.48,-129.35"/>
</g>
<!-- 14 -->
<g id="node14" class="node">
<title>14</title>
<ellipse fill="none" stroke="black" cx="477" cy="-95" rx="27" ry="18"/>
<text text-anchor="middle" x="477" y="-91.3" font-family="Times New Roman,serif" font-size="14.00">14</text>
</g>
<!-- 8&#45;&gt;14 -->
<g id="edge17" class="edge">
<title>8&#45;&gt;14</title>
<path fill="none" stroke="black" d="M404.14,-32.12C417.66,-43.95 437.15,-61 452.41,-74.36"/>
<polygon fill="black" stroke="black" points="450.13,-77.02 459.96,-80.97 454.74,-71.75 450.13,-77.02"/>
</g>
<!-- 6&#45;&gt;12 -->
<g id="edge14" class="edge">
<title>6&#45;&gt;12</title>
<path fill="none" stroke="black" d="M317.53,-52.98C329.38,-60.26 344.7,-69.66 357.84,-77.72"/>
<polygon fill="black" stroke="black" points="356.17,-80.8 366.52,-83.05 359.83,-74.84 356.17,-80.8"/>
</g>
<!-- 12&#45;&gt;14 -->
<g id="edge16" class="edge">
<title>12&#45;&gt;14</title>
<path fill="none" stroke="black" d="M414.4,-95C422.39,-95 431.31,-95 439.82,-95"/>
<polygon fill="black" stroke="black" points="439.92,-98.5 449.92,-95 439.92,-91.5 439.92,-98.5"/>
</g>
<!-- 12&#45;&gt;15 -->
<g id="edge30" class="edge">
<title>12&#45;&gt;15</title>
<path fill="none" stroke="black" d="M407.53,-106.98C419.38,-114.26 434.7,-123.66 447.84,-131.72"/>
<polygon fill="black" stroke="black" points="446.17,-134.8 456.52,-137.05 449.83,-128.84 446.17,-134.8"/>
</g>
<!-- 17 -->
<g id="node15" class="node">
<title>17</title>
<ellipse fill="none" stroke="black" cx="567" cy="-99" rx="27" ry="18"/>
<text text-anchor="middle" x="567" y="-95.3" font-family="Times New Roman,serif" font-size="14.00">17</text>
</g>
<!-- 14&#45;&gt;17 -->
<g id="edge18" class="edge">
<title>14&#45;&gt;17</title>
<path fill="none" stroke="black" d="M504.4,-96.2C512.39,-96.56 521.31,-96.97 529.82,-97.36"/>
<polygon fill="black" stroke="black" points="529.77,-100.86 539.92,-97.81 530.09,-93.86 529.77,-100.86"/>
</g>
<!-- 18 -->
<g id="node17" class="node">
<title>18</title>
<ellipse fill="none" stroke="black" cx="657" cy="-149" rx="27" ry="18"/>
<text text-anchor="middle" x="657" y="-145.3" font-family="Times New Roman,serif" font-size="14.00">18</text>
</g>
<!-- 17&#45;&gt;18 -->
<g id="edge20" class="edge">
<title>17&#45;&gt;18</title>
<path fill="none" stroke="black" d="M587.97,-110.35C599.48,-116.88 614.15,-125.22 626.92,-132.48"/>
<polygon fill="black" stroke="black" points="625.38,-135.63 635.81,-137.53 628.84,-129.54 625.38,-135.63"/>
</g>
<!-- 15&#45;&gt;18 -->
<g id="edge19" class="edge">
<title>15&#45;&gt;18</title>
<path fill="none" stroke="black" d="M504.26,-149C534.85,-149 585.55,-149 619.84,-149"/>
<polygon fill="black" stroke="black" points="619.92,-152.5 629.92,-149 619.92,-145.5 619.92,-152.5"/>
</g>
<!-- 18&#45;&gt;19 -->
<g id="edge22" class="edge">
<title>18&#45;&gt;19</title>
<path fill="none" stroke="black" d="M682.51,-155.41C691.57,-157.77 702.01,-160.5 711.78,-163.05"/>
<polygon fill="black" stroke="black" points="711.06,-166.49 721.62,-165.63 712.83,-159.71 711.06,-166.49"/>
</g>
<!-- 20 -->
<g id="node19" class="node">
<title>20</title>
<ellipse fill="none" stroke="black" cx="837" cy="-172" rx="27" ry="18"/>
<text text-anchor="middle" x="837" y="-168.3" font-family="Times New Roman,serif" font-size="14.00">20</text>
</g>
<!-- 19&#45;&gt;20 -->
<g id="edge23" class="edge">
<title>19&#45;&gt;20</title>
<path fill="none" stroke="black" d="M774.4,-172C782.39,-172 791.31,-172 799.82,-172"/>
<polygon fill="black" stroke="black" points="799.92,-175.5 809.92,-172 799.92,-168.5 799.92,-175.5"/>
</g>
<!-- 9&#45;&gt;15 -->
<g id="edge29" class="edge">
<title>9&#45;&gt;15</title>
<path fill="none" stroke="black" d="M324.26,-149C354.85,-149 405.55,-149 439.84,-149"/>
<polygon fill="black" stroke="black" points="439.92,-152.5 449.92,-149 439.92,-145.5 439.92,-152.5"/>
</g>
</g>
</svg>
